<svg xmlns="http://www.w3.org/2000/svg" viewBox="0 0 512 512">
  <defs>
    <linearGradient id="gradient" x1="0%" y1="0%" x2="100%" y2="100%">
      <stop offset="0%" style="stop-color:#8B5CF6"/>
      <stop offset="50%" style="stop-color:#EC4899"/>
      <stop offset="100%" style="stop-color:#F472B6"/>
    </linearGradient>
    <linearGradient id="pulse" x1="0%" y1="0%" x2="100%" y2="0%">
      <stop offset="0%" style="stop-color:#FFFFFF"/>
      <stop offset="100%" style="stop-color:#F0ABFC"/>
    </linearGradient>
  </defs>

  <!-- Background Circle -->
  <circle cx="256" cy="256" r="240" fill="url(#gradient)"/>

  <!-- Inner glow -->
  <circle cx="256" cy="256" r="200" fill="rgba(255,255,255,0.1)"/>

  <!-- Baby/Heart Symbol - Stylized -->
  <path d="M256 380c-8 0-15-3-20-8l-90-90c-35-35-35-92 0-127 17-17 40-26 64-26 20 0 38 6 54 18 16-12 34-18 54-18 24 0 47 9 64 26 35 35 35 92 0 127l-90 90c-5 5-12 8-20 8h-16zm-46-219c-14 0-28 5-38 16-21 21-21 55 0 76l84 84 84-84c21-21 21-55 0-76-10-11-24-16-38-16-14 0-28 5-38 16l-8 8-8-8c-10-11-24-16-38-16z"
        fill="url(#pulse)"
        opacity="0.95"/>

  <!-- Heartbeat/Pulse Line -->
  <path d="M120 256h60l20-40 30 80 30-80 20 40h112"
        stroke="#FFFFFF"
        stroke-width="12"
        stroke-linecap="round"
        stroke-linejoin="round"
        fill="none"
        opacity="0.9"/>

  <!-- Small sparkle accents -->
  <circle cx="380" cy="150" r="8" fill="#FFFFFF" opacity="0.8"/>
  <circle cx="400" cy="180" r="4" fill="#FFFFFF" opacity="0.6"/>
  <circle cx="130" cy="340" r="6" fill="#FFFFFF" opacity="0.7"/>
</svg>
